<?xml version="1.0" encoding="UTF-8" standalone="no"?>
<!DOCTYPE svg PUBLIC "-//W3C//DTD SVG 1.1//EN" "http://www.w3.org/Graphics/SVG/1.1/DTD/svg11.dtd">
<svg version="1.1" xmlns="http://www.w3.org/2000/svg" xmlns:xlink="http://www.w3.org/1999/xlink" preserveAspectRatio="xMidYMid meet" viewBox="0 0 640 640" width="640" height="640"><defs><path d="M495.2 167.16C489.09 163.01 481.72 160.58 473.8 160.58C467.06 160.58 413.19 160.58 406.46 160.58C412.2 155.92 415.51 149.05 415.55 141.62C415.6 133.98 412.19 126.88 406.19 122.14C392.91 111.66 286.69 27.76 273.42 17.27C267.6 12.68 259.85 11.83 253.18 15.07C246.52 18.31 242.38 24.93 242.38 32.35C242.38 35.06 242.38 48.61 242.38 72.98C166.11 72.98 123.73 72.98 115.26 72.98C100.19 72.98 87.88 85.26 87.81 100.35C87.79 104.37 87.7 124.44 87.53 160.58C57.93 160.58 41.49 160.58 38.2 160.58C27.07 160.58 17.03 165.38 10.04 173.02C9.72 173.36 9.41 173.72 9.11 174.09C3.43 180.77 0 189.42 0 198.85C0 225.03 0 434.43 0 460.6C0 470.24 3.58 479.04 9.47 485.78C9.76 486.14 10.07 486.48 10.39 486.8C17.36 494.23 27.25 498.88 38.2 498.88C81.76 498.88 430.24 498.88 473.8 498.88C494.86 498.88 512 481.71 512 460.6C512 434.43 512 225.03 512 198.85C512 186.09 505.72 174.77 496.11 167.81C495.81 167.59 495.51 167.37 495.2 167.16ZM29.96 209.36L189.3 331.17L29.96 450.62L29.96 209.36ZM115.55 202.12C124.1 202.12 166.85 202.12 243.81 202.12C243.81 227.92 243.81 242.26 243.81 245.13C243.59 260.57 262.14 271.43 276.07 261.04C282.16 256.35 312.65 232.87 367.51 190.6L448.07 190.6C342.14 271.65 283.29 316.67 271.52 325.68C253.47 338.62 236.43 331.09 222.53 318.82C211.35 310.27 155.45 267.53 54.82 190.6C77.66 190.6 90.35 190.6 92.88 190.6C93.72 191.73 94.64 192.81 95.65 193.83C100.96 199.17 108.03 202.12 115.55 202.12ZM482.04 457.26L313.75 331.14L482.04 202.38L482.04 457.26ZM214.07 350.09C235.57 366.09 266.56 366.78 288.98 350.07C299.55 357.98 352.38 397.58 447.48 468.86L55.66 468.86C140.15 405.51 192.95 365.93 214.07 350.09ZM117.76 103C201.52 103 248.05 103 257.36 103C265.63 103 272.34 96.28 272.34 87.99C272.34 85.77 272.34 74.65 272.34 54.65L382.2 141.42L273.78 224.94C273.78 202.24 273.78 189.63 273.78 187.11C273.78 178.82 267.07 172.1 258.79 172.1C249.37 172.1 202.25 172.1 117.44 172.1L117.76 103Z" id="a1uZKOYp9i"></path></defs><g><g><g><use xlink:href="#a1uZKOYp9i" opacity="1" fill="#ffffff" fill-opacity="1"></use><g><use xlink:href="#a1uZKOYp9i" opacity="1" fill-opacity="0" stroke="#000000" stroke-width="1" stroke-opacity="0"></use></g></g></g></g></svg>