<?xml version="1.0" encoding="UTF-8" standalone="no"?>
<!DOCTYPE svg PUBLIC "-//W3C//DTD SVG 1.1//EN" "http://www.w3.org/Graphics/SVG/1.1/DTD/svg11.dtd">
<svg version="1.1" xmlns="http://www.w3.org/2000/svg" xmlns:xlink="http://www.w3.org/1999/xlink" preserveAspectRatio="xMidYMid meet" viewBox="0 0 640 640" width="640" height="640"><defs><path d="M213.14 563.45L119.89 563.45L119.89 262.41L213.14 262.41L213.14 563.45ZM167.86 111.89C137.62 111.89 113.22 136.36 113.22 166.5C113.22 196.65 137.62 221.12 167.86 221.12C197.98 221.12 222.44 196.65 222.44 166.5C222.44 136.36 197.98 111.89 167.86 111.89ZM562.12 397.83C562.12 317.02 545.05 257.08 450.64 257.08C405.28 257.08 374.83 279.77 362.4 303.36C362.4 303.36 362.37 303.36 362.31 303.36L362.31 262.41L271.73 262.41L271.73 563.45L362.31 563.45C362.31 473.77 362.31 423.95 362.31 413.98C362.31 374.84 372.28 336.92 420.8 336.92C468.66 336.92 470.21 381.68 470.21 416.47C470.21 426.27 470.21 475.26 470.21 563.45L562.12 563.45C562.12 475.12 562.12 419.91 562.12 397.83ZM682 79.92C682 35.85 646.15 0 602.08 0C549.86 0 132.14 0 79.92 0C35.85 0 0 35.85 0 79.92C0 132.14 0 549.86 0 602.08C0 646.15 35.85 682 79.92 682C132.14 682 549.86 682 602.08 682C646.15 682 682 646.15 682 602.08C682 497.65 682 132.14 682 79.92ZM602.08 53.28C616.77 53.28 628.72 65.23 628.72 79.92C628.72 132.14 628.72 549.86 628.72 602.08C628.72 616.77 616.77 628.72 602.08 628.72C549.86 628.72 132.14 628.72 79.92 628.72C65.23 628.72 53.28 616.77 53.28 602.08C53.28 549.86 53.28 132.14 53.28 79.92C53.28 65.23 65.23 53.28 79.92 53.28C184.35 53.28 497.65 53.28 602.08 53.28Z" id="ddCEd7piM"></path></defs><g><g><g><use xlink:href="#ddCEd7piM" opacity="1" fill="#ffffff" fill-opacity="1"></use><g><use xlink:href="#ddCEd7piM" opacity="1" fill-opacity="0" stroke="#000000" stroke-width="1" stroke-opacity="0"></use></g></g></g></g></svg>